# xmcd
#
# Track frame offsets:
#	150
#	26345
#	44380
#	57396
#	71202
#	84713
#	97154
#	110574
#	126567
#	147106
#	158200
#	176291
#	208922
#	242336
#	266831
#
# Disc length: 4676 seconds
#
# Revision: 6
# Processed by: cddbd v1.5.2PL0 Copyright (c) Steve Scherf et al.
# Submitted via: EZCDAudioConverter 2.1.7.1
#
DISCID=e012420f
DTITLE=V/A - In Seach Of Syd
DYEAR=2007
DGENRE=MOJO
TTITLE0=Spacemen 3 - Things'll Never Be The Same
TTITLE1=Flaming Lips - She Is Death
TTITLE2=Blind Boy Fuller and Floyd Council - If You Don't Give Me What I Want
TTITLE3=Pink Anderson - C.C. And O. Blues
TTITLE4=Bonzo Dog Band - Humanoid Boogie
TTITLE5=Kevin Ayers - Oh! Wot A Dream
TTITLE6=Jennifer Gentle - Take My Hand
TTITLE7=Mothers Of Invention - Who Are The Brain Police?
TTITLE8=Gong - 5 And 20 Schoolgirls
TTITLE9=Bevis Frond - Portobello Man
TTITLE10=Hawkwind - Cymbaline
TTITLE11=Wooden Shjips - SOL 07 (Part 1)
TTITLE12=Soft Machine - I Should've Known
TTITLE13=Amm - Ailantus Glandulosa
TTITLE14=Acid Mothers Temple and The Melting Paraiso U.F.O. - Crystal Rainbow Py
TTITLE14=ramid
EXTD=
EXTT0=
EXTT1=
EXTT2=
EXTT3=
EXTT4=
EXTT5=
EXTT6=
EXTT7=
EXTT8=
EXTT9=
EXTT10=
EXTT11=
EXTT12=
EXTT13=
EXTT14=
PLAYORDER=
